<?xml version="1.0" encoding="UTF-8"?>
<svg width="26px" height="24px" viewBox="0 0 26 24" version="1.1" xmlns="http://www.w3.org/2000/svg" xmlns:xlink="http://www.w3.org/1999/xlink">
    <!-- Generator: Sketch 47.1 (45422) - http://www.bohemiancoding.com/sketch -->
    <title>Bus</title>
    <desc>Created with Sketch.</desc>
    <defs></defs>
    <g id="Symbols" stroke="none" stroke-width="1" fill="none" fill-rule="evenodd">
        <g id="Artboard" transform="translate(-106.000000, -323.000000)" fill="#FFFFFF">
            <g id="Bus" transform="translate(106.000000, 323.000000)">
                <path d="M5,0 L21,0 C22.1045695,-2.02906125e-16 23,0.8954305 23,2 L23,21 C23,21.5522847 22.5522847,22 22,22 C22,23.3333333 21.6666667,24 21,24 C20,24 20,24 19,24 C18.3333333,24 18,23.3333333 18,22 L8,22 C8,23.3333333 7.66666667,24 7,24 C6,24 6,24 5,24 C4.33333333,24 4,23.3333333 4,22 C3.44771525,22 3,21.5522847 3,21 L3,2 L3,2 C3,0.8954305 3.8954305,2.02906125e-16 5,0 Z M4,5 L4,14 C4,14.5522847 4.44771525,15 5,15 L21,15 C21.5522847,15 22,14.5522847 22,14 L22,5 L4,5 Z M4,2 L4,4 L22,4 L22,2 L4,2 Z M21,17 C21,18.3333333 20.6666667,19 20,19 C19.3333333,19 18.6666667,19 18,19 L18,17 L21,17 Z M5,17 L8,17 L8,19 C7.33333333,19 6.66666667,19 6,19 C5.33333333,19 5,18.3333333 5,17 Z M24.5,2 L25.5,2 C25.7761424,2 26,2.22385763 26,2.5 L26,6.5 C26,6.77614237 25.7761424,7 25.5,7 L24.5,7 C24.2238576,7 24,6.77614237 24,6.5 L24,2.5 C24,2.22385763 24.2238576,2 24.5,2 Z M0.5,2 L1.5,2 C1.77614237,2 2,2.22385763 2,2.5 L2,6.5 C2,6.77614237 1.77614237,7 1.5,7 L0.5,7 C0.223857625,7 3.38176876e-17,6.77614237 0,6.5 L0,2.5 C-3.38176876e-17,2.22385763 0.223857625,2 0.5,2 L0.5,2 Z" id="Rectangle"></path>
            </g>
        </g>
    </g>
</svg>