<?xml version="1.0" encoding="UTF-8"?>
<svg width="26px" height="25px" viewBox="0 0 26 25" version="1.1" xmlns="http://www.w3.org/2000/svg" xmlns:xlink="http://www.w3.org/1999/xlink">
    <!-- Generator: Sketch 47.1 (45422) - http://www.bohemiancoding.com/sketch -->
    <title>Tram</title>
    <desc>Created with Sketch.</desc>
    <defs></defs>
    <g id="Symbols" stroke="none" stroke-width="1" fill="none" fill-rule="evenodd">
        <g id="Artboard" transform="translate(-152.000000, -322.000000)" fill="#FFFFFF">
            <g id="Tram" transform="translate(152.000000, 322.000000)">
                <path d="M5,4 L21,4 C22.1045695,4 23,4.8954305 23,6 L23,23 C23,24.1045695 22.1045695,25 21,25 L5,25 C3.8954305,25 3,24.1045695 3,23 L3,6 C3,4.8954305 3.8954305,4 5,4 Z M4,6 L4,18 C4,18.5522847 4.44771525,19 5,19 L5,19 L21,19 C21.5522847,19 22,18.5522847 22,18 L22,6 L4,6 Z M5,21 C5,22.3333333 5.33333333,23 6,23 C6.66666667,23 7.33333333,23 8,23 L8,21 L5,21 Z M18,21 L18,23 C18.6666667,23 19.3333333,23 20,23 C20.6666667,23 21,22.3333333 21,21 L18,21 Z M5.53320118,1.54034099 C7.4656661,0.52037188 9.95459904,0.00694767277 13,6.83732288e-05 C16.0477611,-0.00681625769 18.5381914,0.506219083 20.4712907,1.5391744 L20.4712892,1.53917726 C20.7967629,1.71309473 21,2.05212776 21,2.42115404 L21,2.75449199 C21,3.0520467 20.7587842,3.29326245 20.4612295,3.29326245 C20.3785273,3.29326245 20.2969351,3.27422329 20.2227741,3.23761994 C18.3393934,2.30801804 15.9317982,1.84322901 13,1.84322901 C10.0682018,1.84322901 7.66060655,2.30801804 5.77721412,3.2375961 L5.77722589,3.23761994 C5.51040169,3.36931524 5.1873378,3.25977162 5.05564251,2.99294741 C5.01903916,2.91878639 5,2.83719424 5,2.75449199 L5,2.42475242 L4.99995764,2.42475242 C4.99995764,2.05387665 5.2052083,1.71345804 5.53320118,1.54034099 Z M24.5,6 L25.5,6 C25.7761424,6 26,6.22385763 26,6.5 L26,10.5 C26,10.7761424 25.7761424,11 25.5,11 L24.5,11 C24.2238576,11 24,10.7761424 24,10.5 L24,6.5 C24,6.22385763 24.2238576,6 24.5,6 Z M0.5,6 L1.5,6 C1.77614237,6 2,6.22385763 2,6.5 L2,10.5 C2,10.7761424 1.77614237,11 1.5,11 L0.5,11 C0.223857625,11 3.38176876e-17,10.7761424 0,10.5 L0,6.5 C-3.38176876e-17,6.22385763 0.223857625,6 0.5,6 L0.5,6 Z" id="Rectangle"></path>
            </g>
        </g>
    </g>
</svg>