<?xml version="1.0" encoding="UTF-8"?>
<svg width="26px" height="25px" viewBox="0 0 26 25" version="1.1" xmlns="http://www.w3.org/2000/svg" xmlns:xlink="http://www.w3.org/1999/xlink">
    <!-- Generator: Sketch 47.1 (45422) - http://www.bohemiancoding.com/sketch -->
    <title>Trolley</title>
    <desc>Created with Sketch.</desc>
    <defs></defs>
    <g id="Symbols" stroke="none" stroke-width="1" fill="none" fill-rule="evenodd">
        <g id="Artboard" transform="translate(-198.000000, -322.000000)" fill="#FFFFFF">
            <g id="Trolley" transform="translate(198.000000, 322.000000)">
                <path d="M16.8848319,3 L21,3 C22.1045695,3 23,3.8954305 23,5 L23,22 L23,22 C23,22.5522847 22.5522847,23 22,23 C22,24.3333333 21.6666667,25 21,25 C20,25 20,25 19,25 C18.3333333,25 18,24.3333333 18,23 L8,23 C8,24.3333333 7.66666667,25 7,25 C6,25 6,25 5,25 C4.33333333,25 4,24.3333333 4,23 C3.44771525,23 3,22.5522847 3,22 L3,5 C3,3.8954305 3.8954305,3 5,3 L8.87508787,3 L11.3509486,0.17072897 L11.3509486,0.17072897 C11.4458924,0.0622327488 11.583048,-1.40049375e-16 11.7272206,-1.66533454e-16 L11.7272206,0 L12.5386247,0 C12.7945083,-4.70050631e-17 13.001943,0.20743468 13.001943,0.463318326 C13.001943,0.577543611 12.959748,0.687743065 12.8834596,0.772757757 L10.8848319,3 L14.8750879,3 L17.3509486,0.17072897 L17.3509486,0.17072897 C17.4458924,0.0622327488 17.583048,-1.40049375e-16 17.7272206,-1.66533454e-16 L17.7272206,0 L18.5386247,0 C18.7945083,-4.70050631e-17 19.001943,0.20743468 19.001943,0.463318326 C19.001943,0.577543611 18.959748,0.687743065 18.8834596,0.772757757 L16.8848319,3 Z M5,19 C5,20.3333333 5.33333333,21 6,21 C6.66666667,21 7.33333333,21 8,21 L8,19 L5,19 Z M18,19 L18,21 C18.6666667,21 19.3333333,21 20,21 C20.6666667,21 21,20.3333333 21,19 L18,19 Z M4,5 L4,16 C4,16.5522847 4.44771525,17 5,17 L21,17 C21.5522847,17 22,16.5522847 22,16 L22,5 L4,5 Z M24.5,5 L25.5,5 C25.7761424,5 26,5.22385763 26,5.5 L26,9.5 C26,9.77614237 25.7761424,10 25.5,10 L24.5,10 C24.2238576,10 24,9.77614237 24,9.5 L24,5.5 C24,5.22385763 24.2238576,5 24.5,5 Z M0.5,5 L1.5,5 C1.77614237,5 2,5.22385763 2,5.5 L2,9.5 C2,9.77614237 1.77614237,10 1.5,10 L0.5,10 C0.223857625,10 3.38176876e-17,9.77614237 0,9.5 L0,5.5 C-3.38176876e-17,5.22385763 0.223857625,5 0.5,5 L0.5,5 Z" id="Rectangle"></path>
            </g>
        </g>
    </g>
</svg>