<?xml version="1.0" encoding="UTF-8"?>
<svg width="26px" height="25px" viewBox="0 0 26 25" version="1.1" xmlns="http://www.w3.org/2000/svg" xmlns:xlink="http://www.w3.org/1999/xlink">
    <!-- Generator: Sketch 47.1 (45422) - http://www.bohemiancoding.com/sketch -->
    <title>Trolley_second</title>
    <desc>Created with Sketch.</desc>
    <defs></defs>
    <g id="Symbols" stroke="none" stroke-width="1" fill="none" fill-rule="evenodd">
        <g id="Artboard" transform="translate(-244.000000, -322.000000)" fill="#FFFFFF">
            <g id="Trolley_second" transform="translate(244.000000, 322.000000)">
                <path d="M17.5672232,2 L21,2 C22.1045695,2 23,2.8954305 23,4 L23,22 C23,22.5522847 22.5522847,23 22,23 C22,24.3333333 21.6666667,25 21,25 C20,25 20,25 19,25 C18.3333333,25 18,24.3333333 18,23 L8,23 C8,24.3333333 7.66666667,25 7,25 C6,25 6,25 5,25 C4.33333333,25 4,24.3333333 4,23 C3.44771525,23 3,22.5522847 3,22 L3,4 C3,2.8954305 3.8954305,2 5,2 L8.43277675,2 L10.3774034,0.138784647 L10.3774034,0.138784647 C10.4704638,0.0497159275 10.5943094,8.25631769e-17 10.7231251,-5.55111512e-17 L10.7231251,0 L11.5672232,0 C11.7988653,-2.48291475e-16 11.9866484,0.187783023 11.9866484,0.41942512 C11.9866484,0.533851941 11.9398974,0.643311044 11.857232,0.722430706 L10.5224077,2 L15.4775923,2 L14.142768,0.722430706 L14.142768,0.722430706 C13.9754227,0.562263323 13.9696038,0.296761784 14.1297712,0.129416419 C14.2088908,0.0467509703 14.3183499,2.1019866e-17 14.4327768,0 L15.2768749,0 L15.2768749,4.4408921e-16 C15.4056906,4.20426159e-16 15.5295362,0.0497159275 15.6225966,0.138784647 L17.5672232,2 Z M5,19 C5,20.3333333 5.33333333,21 6,21 C6.66666667,21 7.33333333,21 8,21 L8,19 L5,19 Z M18,19 L18,21 C18.6666667,21 19.3333333,21 20,21 C20.6666667,21 21,20.3333333 21,19 L18,19 Z M4,4 L4,16 C4,16.5522847 4.44771525,17 5,17 L5,17 L21,17 C21.5522847,17 22,16.5522847 22,16 L22,4 L4,4 Z M24.5,4 L25.5,4 C25.7761424,4 26,4.22385763 26,4.5 L26,8.5 C26,8.77614237 25.7761424,9 25.5,9 L24.5,9 C24.2238576,9 24,8.77614237 24,8.5 L24,4.5 C24,4.22385763 24.2238576,4 24.5,4 Z M0.5,4 L1.5,4 C1.77614237,4 2,4.22385763 2,4.5 L2,8.5 C2,8.77614237 1.77614237,9 1.5,9 L0.5,9 C0.223857625,9 3.38176876e-17,8.77614237 0,8.5 L0,4.5 C-3.38176876e-17,4.22385763 0.223857625,4 0.5,4 L0.5,4 Z" id="Rectangle"></path>
            </g>
        </g>
    </g>
</svg>